<svg width="16" height="16" viewBox="0 0 16 16" fill="none" xmlns="http://www.w3.org/2000/svg">
<g clip-path="url(#clip0)">
<path d="M7 14C3.14 14 0 10.86 0 7C0 3.14 3.14 0 7 0C10.86 0 14 3.14 14 7C14 10.86 10.86 14 7 14ZM7 2C4.243 2 2 4.243 2 7C2 9.757 4.243 12 7 12C9.757 12 12 9.757 12 7C12 4.243 9.757 2 7 2Z" fill="#BDBDBD"/>
<path d="M15.707 14.293L13.314 11.9C12.9035 12.4285 12.4285 12.9035 11.9 13.314L14.293 15.707C14.3857 15.8002 14.4958 15.8742 14.6172 15.9246C14.7385 15.9751 14.8686 16.0011 15 16.0011C15.1314 16.0011 15.2615 15.9751 15.3829 15.9246C15.5042 15.8742 15.6144 15.8002 15.707 15.707C15.8 15.6142 15.8737 15.504 15.924 15.3827C15.9743 15.2614 16.0002 15.1314 16.0002 15C16.0002 14.8687 15.9743 14.7386 15.924 14.6173C15.8737 14.496 15.8 14.3858 15.707 14.293Z" fill="#BDBDBD"/>
</g>
<defs>
<clipPath id="clip0">
<path d="M0 0H16V16H0V0Z" fill="white"/>
</clipPath>
</defs>
</svg>
